<?xml version="1.0" encoding="UTF-8"?>
<svg width="57px" height="31px" viewBox="0 0 57 31" version="1.1" xmlns="http://www.w3.org/2000/svg" xmlns:xlink="http://www.w3.org/1999/xlink">
    <!-- Generator: Sketch 62 (91390) - https://sketch.com -->
    <title>Help&amp;Support</title>
    <desc>Created with Sketch.</desc>
    <g id="help-site" stroke="none" stroke-width="1" fill="none" fill-rule="evenodd" fill-opacity="0.85">
        <path d="M5.662,11 L5.816,10.09 C4.976,9.922 4.766,9.628 4.808,9.236 L5.214,6.646 L8.434,6.646 L8.028,9.236 C7.972,9.628 7.706,9.894 6.74,10.09 L6.572,11 L11.556,11 L11.71,10.09 C10.828,9.922 10.66,9.572 10.702,9.236 L11.598,3.538 C11.696,2.852 11.934,2.656 12.886,2.558 L13.04,1.648 L8.056,1.648 L7.916,2.558 C8.84,2.628 9.008,2.908 8.91,3.538 L8.56,5.792 L5.354,5.792 L5.704,3.538 C5.802,2.852 6.026,2.656 6.992,2.558 L7.146,1.648 L2.204,1.648 L2.036,2.558 C3.156,2.656 3.1,3.048 3.016,3.538 L2.134,9.236 C2.078,9.558 1.924,9.908 0.874,10.09 L0.706,11 L5.662,11 Z M15.546,11.196 C17.394,11.196 18.724,9.964 19.27,8.634 L18.654,8.326 C18.234,9.068 17.338,9.446 16.638,9.446 C15.854,9.446 15.336,8.984 15.182,8.116 L16.456,7.808 C18.71,7.248 19.494,6.534 19.48,5.274 C19.466,4.392 18.514,3.622 16.946,3.622 C14.328,3.622 12.564,5.54 12.578,8.172 C12.592,9.726 13.404,11.196 15.546,11.196 Z M15.154,7.248 C15.238,6.086 15.714,4.532 16.582,4.532 C17.128,4.532 17.324,4.868 17.338,5.246 C17.352,6.31 16.89,6.786 15.812,7.066 L15.154,7.248 Z M21.692,11.196 C22.49,11.196 23.54,10.538 24.324,9.586 L23.89,9.152 C23.372,9.6 23.19,9.768 22.966,9.768 C22.77,9.768 22.63,9.628 22.63,9.362 C22.63,9.222 22.658,9.054 22.686,8.886 L22.938,7.43 L23.932,1.046 L23.358,1.046 L20.488,1.648 L20.376,2.376 L20.572,2.474 C21.076,2.726 21.034,2.992 20.992,3.258 L20.348,7.43 L20.124,8.76 C20.068,9.138 20.026,9.586 20.026,9.768 C20.026,10.72 20.586,11.196 21.692,11.196 Z M26.942,13.772 L27.362,11.042 C27.67,11.14 28.034,11.196 28.468,11.196 C30.792,11.196 32.64,9.04 32.64,6.366 C32.64,4.896 31.884,3.622 30.036,3.622 C29.434,3.622 28.818,3.902 28.342,4.518 L28.496,3.622 L27.936,3.622 L25.052,4.224 L24.94,4.952 L25.136,5.05 C25.528,5.26 25.612,5.484 25.556,5.834 L24.338,13.772 L26.942,13.772 Z M28.328,10.16 C27.81,10.16 27.558,9.544 27.726,8.508 L28.258,5.176 C28.65,4.924 28.65,4.966 28.986,4.966 C29.63,4.966 29.882,5.68 29.882,6.632 C29.882,8.522 29.154,10.16 28.328,10.16 Z M39.6366094,11.2529297 C40.5936406,11.2529297 41.4709193,10.9886068 42.2684453,10.4599609 L42.2684453,10.4599609 L42.7196172,11 L45.0985234,11 C44.6017786,10.4622396 44.130099,9.90397135 43.6834844,9.32519531 C44.7590052,8.17220052 45.2967656,6.85058594 45.2967656,5.36035156 L45.2967656,5.36035156 L43.5946172,5.36035156 L43.5946172,5.51757812 C43.5946172,6.70703125 43.364474,7.6344401 42.9041875,8.29980469 C42.115776,7.34733073 41.4321823,6.33561198 40.8534063,5.26464844 C42.3436406,4.5719401 43.0887578,3.74023438 43.0887578,2.76953125 C43.0887578,2.14518229 42.8426641,1.63134766 42.3504766,1.22802734 C41.8582891,0.824707031 41.2316615,0.623046875 40.4705938,0.623046875 C39.677625,0.623046875 39.0133997,0.832682292 38.477918,1.25195312 C37.9424362,1.67122396 37.6746953,2.18847656 37.6746953,2.80371094 C37.6746953,3.34147135 37.9162318,4.03417969 38.3993047,4.88183594 C36.7176641,5.57454427 35.8768438,6.61816406 35.8768438,8.01269531 C35.8768438,8.9514974 36.2311732,9.72623698 36.939832,10.3369141 C37.6484909,10.9475911 38.5474167,11.2529297 39.6366094,11.2529297 Z M40.2176641,4.32128906 C39.8029505,3.68782552 39.5955938,3.17285156 39.5955938,2.77636719 C39.5955938,2.18847656 39.896375,1.89453125 40.4979375,1.89453125 C41.0995,1.89453125 41.4002813,2.19986979 41.4002813,2.81054688 C41.4002813,3.3984375 41.0060755,3.90201823 40.2176641,4.32128906 Z M39.9920781,9.94726562 C39.3905156,9.94726562 38.8812383,9.72395833 38.4642461,9.27734375 C38.0472539,8.83072917 37.8387578,8.28613281 37.8387578,7.64355469 C37.8387578,6.87792969 38.25575,6.30598958 39.0897344,5.92773438 L39.0897344,5.92773438 L39.3358281,6.34472656 C40.0011927,7.4749349 40.7098516,8.51627604 41.4618047,9.46875 C41.0106328,9.78776042 40.520724,9.94726562 39.9920781,9.94726562 Z M4.388,28.196 C6.88,28.196 8.644,26.866 8.644,24.892 C8.644,21.532 4.43,22.526 4.43,20.608 C4.43,19.936 4.822,19.362 5.466,19.362 C6.306,19.362 6.852,20.118 6.852,21.504 L9.134,20.16 C9.092,19.516 8.014,18.452 5.97,18.452 C3.562,18.452 1.91,19.684 1.91,21.532 C1.91,24.766 5.984,23.786 5.984,25.886 C5.97,26.642 5.522,27.286 4.766,27.286 C3.688,27.286 3.24,26.404 3.24,24.752 L0.776,26.628 C1.7,27.636 2.946,28.196 4.388,28.196 Z M14.37,28.196 L17.422,27.454 L17.576,26.544 L17.072,26.544 C16.918,26.544 16.778,26.474 16.778,26.138 C16.778,26.04 16.764,25.9 16.806,25.746 L16.876,25.242 L17.576,20.818 L14.986,20.818 L14.286,25.242 L14.146,26.152 C13.712,26.516 13.334,26.614 13.194,26.614 C12.606,26.614 12.536,26.124 12.634,25.508 L12.802,24.388 L13.012,23.058 C13.082,22.68 13.124,22.232 13.124,22.05 C13.124,21.098 12.564,20.622 11.458,20.622 C10.66,20.622 9.61,21.28 8.812,22.232 L9.26,22.666 C9.778,22.218 9.96,22.064 10.184,22.064 C10.38,22.064 10.52,22.204 10.52,22.456 C10.52,22.596 10.492,22.764 10.464,22.932 L10.198,24.388 L9.988,25.746 C9.75,27.202 10.198,28.196 11.794,28.196 C12.578,28.196 13.32,27.832 14.02,27.048 L13.852,28.196 L14.37,28.196 Z M20.754,30.772 L21.174,28.042 C21.482,28.14 21.846,28.196 22.28,28.196 C24.604,28.196 26.452,26.04 26.452,23.366 C26.452,21.896 25.696,20.622 23.848,20.622 C23.246,20.622 22.63,20.902 22.154,21.518 L22.308,20.622 L21.748,20.622 L18.864,21.224 L18.752,21.952 L18.948,22.05 C19.34,22.26 19.424,22.484 19.368,22.834 L18.15,30.772 L20.754,30.772 Z M22.14,27.16 C21.622,27.16 21.37,26.544 21.538,25.508 L22.07,22.176 C22.462,21.924 22.462,21.966 22.798,21.966 C23.442,21.966 23.694,22.68 23.694,23.632 C23.694,25.522 22.966,27.16 22.14,27.16 Z M29.378,30.772 L29.798,28.042 C30.106,28.14 30.47,28.196 30.904,28.196 C33.228,28.196 35.076,26.04 35.076,23.366 C35.076,21.896 34.32,20.622 32.472,20.622 C31.87,20.622 31.254,20.902 30.778,21.518 L30.932,20.622 L30.372,20.622 L27.488,21.224 L27.376,21.952 L27.572,22.05 C27.964,22.26 28.048,22.484 27.992,22.834 L26.774,30.772 L29.378,30.772 Z M30.764,27.16 C30.246,27.16 29.994,26.544 30.162,25.508 L30.694,22.176 C31.086,21.924 31.086,21.966 31.422,21.966 C32.066,21.966 32.318,22.68 32.318,23.632 C32.318,25.522 31.59,27.16 30.764,27.16 Z M38.856,28.196 C41.292,28.196 43.35,26.236 43.35,23.73 C43.35,22.008 42.216,20.622 40.13,20.622 C37.582,20.622 35.636,22.666 35.636,25.116 C35.636,26.852 36.714,28.196 38.856,28.196 Z M38.954,27.3 C38.506,27.3 38.17,26.684 38.17,25.704 C38.17,24.164 38.856,21.518 40.004,21.518 C40.452,21.518 40.788,22.162 40.788,23.184 C40.788,24.64 40.102,27.3 38.954,27.3 Z M46.724,28 L47.424,23.562 C47.606,23.142 48.11,22.792 48.67,22.75 C49.188,22.722 49.762,22.932 49.986,23.338 L50.798,20.608 C50.63,20.552 50.406,20.524 50.098,20.552 C49.174,20.636 48.208,21.224 47.564,22.624 L47.886,20.622 L47.326,20.622 L44.428,21.224 L44.316,21.952 L44.526,22.05 C44.946,22.26 44.988,22.484 44.932,22.834 L44.12,28 L46.724,28 Z M53.514,28.196 C54.606,28.196 55.376,27.272 55.894,26.586 L55.46,26.166 C54.732,26.824 54.634,26.852 54.452,26.852 C54.088,26.852 53.99,26.516 54.102,25.732 L54.746,21.686 L56.608,21.686 L56.748,20.818 L54.872,20.818 L55.222,18.648 L54.76,18.648 L52.45,19.558 L52.254,20.818 L51.176,20.818 L51.036,21.686 L52.114,21.686 L51.456,25.928 C51.232,27.342 51.988,28.196 53.514,28.196 Z" id="Help&amp;Support" fill="#000000" fill-rule="nonzero"></path>
    </g>
</svg>